<svg width="50" height="52" viewBox="0 0 50 52" fill="none" xmlns="http://www.w3.org/2000/svg">
<path fill-rule="evenodd" clip-rule="evenodd" d="M11.8783 20.3487H7.37097V47.7755H11.8783H20.8931V43.2044H11.8783V20.3487Z" fill="#2E2D60"/>
<path fill-rule="evenodd" clip-rule="evenodd" d="M41.627 20.3487H37.1196V43.2044H28.1049V47.7755H37.1196H41.627V20.3487Z" fill="#7EAFDC"/>
<path d="M24.5295 43.774L26.954 39.5475H29.2676L25.7814 45.3489L29.3468 51.2467H27.0095L24.5295 46.9559L22.0417 51.2467H19.7123L23.2856 45.3489L19.7915 39.5475H22.1051L24.5295 43.774Z" fill="#7EAFDC"/>
<path fill-rule="evenodd" clip-rule="evenodd" d="M24.6943 0L48.8623 23.7065L46.6687 26.0065L24.5321 4.29257L2.23067 26.9022L0 24.6393L12.7798 11.6828V7.54957H15.4842V8.94102L24.2851 0.0185133L24.4841 0.220378L24.6943 0Z" fill="#2E2D60"/>
<path d="M15.5487 27.1536H14.7432L14.5623 27.6625H14.3008L15.0351 25.7127H15.2569L15.9924 27.6625H15.7323L15.5487 27.1536ZM14.8198 26.942H15.4735L15.146 26.0301L14.8198 26.942Z" fill="#262420"/>
<path d="M16.1535 26.926C16.1535 26.7037 16.2055 26.5251 16.3094 26.3903C16.4132 26.2546 16.5492 26.1867 16.7174 26.1867C16.8847 26.1867 17.0171 26.2448 17.1149 26.3608V25.6055H17.3592V27.6625H17.1347L17.1228 27.5072C17.0251 27.6286 16.8891 27.6893 16.7148 27.6893C16.5492 27.6893 16.4141 27.6206 16.3094 27.4831C16.2055 27.3456 16.1535 27.1661 16.1535 26.9447V26.926ZM16.3978 26.9541C16.3978 27.1184 16.4313 27.2469 16.4982 27.3398C16.5651 27.4326 16.6575 27.4791 16.7755 27.4791C16.9304 27.4791 17.0436 27.4085 17.1149 27.2675V26.6019C17.0418 26.4653 16.9296 26.397 16.7781 26.397C16.6584 26.397 16.5651 26.4439 16.4982 26.5376C16.4313 26.6314 16.3978 26.7702 16.3978 26.9541Z" fill="#262420"/>
<path d="M18.6216 27.6625C18.6075 27.634 18.5961 27.5831 18.5872 27.5099C18.4737 27.6295 18.3381 27.6893 18.1805 27.6893C18.0397 27.6893 17.9239 27.6491 17.8332 27.5688C17.7434 27.4875 17.6985 27.3849 17.6985 27.2608C17.6985 27.1099 17.7549 26.9929 17.8676 26.9099C17.9811 26.826 18.1405 26.784 18.3456 26.784H18.5833V26.6702C18.5833 26.5836 18.5578 26.5148 18.5067 26.464C18.4556 26.4122 18.3804 26.3863 18.2809 26.3863C18.1937 26.3863 18.1207 26.4086 18.0617 26.4532C18.0027 26.4979 17.9732 26.5519 17.9732 26.6153H17.7276C17.7276 26.543 17.7527 26.4733 17.8029 26.4064C17.8539 26.3385 17.9226 26.2849 18.0089 26.2457C18.096 26.2064 18.1915 26.1867 18.2954 26.1867C18.46 26.1867 18.589 26.2287 18.6823 26.3126C18.7756 26.3957 18.8241 26.5104 18.8276 26.6568V27.3237C18.8276 27.4567 18.8443 27.5625 18.8778 27.6411V27.6625H18.6216ZM18.2162 27.4737C18.2928 27.4737 18.3654 27.4536 18.4341 27.4134C18.5027 27.3733 18.5525 27.321 18.5833 27.2568V26.9595H18.3918C18.0925 26.9595 17.9428 27.0483 17.9428 27.226C17.9428 27.3036 17.9684 27.3643 18.0194 27.4081C18.0705 27.4518 18.1361 27.4737 18.2162 27.4737Z" fill="#262420"/>
<path d="M19.4403 26.2135L19.4469 26.3742C19.5517 26.2492 19.693 26.1867 19.8708 26.1867C20.0706 26.1867 20.2066 26.2644 20.2788 26.4198C20.3264 26.3501 20.388 26.2939 20.4637 26.251C20.5403 26.2082 20.6305 26.1867 20.7344 26.1867C21.0478 26.1867 21.2072 26.355 21.2124 26.6916V27.6625H20.9681V26.7064C20.9681 26.6028 20.9448 26.5256 20.8982 26.4747C20.8515 26.4229 20.7731 26.397 20.6631 26.397C20.5724 26.397 20.4972 26.4247 20.4373 26.48C20.3774 26.5345 20.3427 26.6081 20.333 26.701V27.6625H20.0874V26.713C20.0874 26.5023 19.9857 26.397 19.7823 26.397C19.6221 26.397 19.5125 26.4662 19.4535 26.6046V27.6625H19.2092V26.2135H19.4403Z" fill="#262420"/>
<path d="M23.0968 25.7127H23.3517V27.0934C23.3517 27.28 23.2962 27.4259 23.1853 27.5313C23.0753 27.6366 22.9282 27.6893 22.7442 27.6893C22.5532 27.6893 22.4044 27.6398 22.2979 27.5407C22.1914 27.4416 22.1381 27.3027 22.1381 27.1242H22.3917C22.3917 27.2358 22.4216 27.3228 22.4815 27.3853C22.5422 27.4478 22.6298 27.4791 22.7442 27.4791C22.849 27.4791 22.9335 27.4456 22.9978 27.3786C23.0629 27.3117 23.0959 27.2179 23.0968 27.0974V25.7127Z" fill="#262420"/>
<path d="M24.6273 27.6625C24.6132 27.634 24.6018 27.5831 24.593 27.5099C24.4794 27.6295 24.3438 27.6893 24.1862 27.6893C24.0454 27.6893 23.9296 27.6491 23.839 27.5688C23.7492 27.4875 23.7043 27.3849 23.7043 27.2608C23.7043 27.1099 23.7606 26.9929 23.8733 26.9099C23.9868 26.826 24.1462 26.784 24.3513 26.784H24.589V26.6702C24.589 26.5836 24.5635 26.5148 24.5124 26.464C24.4614 26.4122 24.3861 26.3863 24.2866 26.3863C24.1995 26.3863 24.1264 26.4086 24.0674 26.4532C24.0084 26.4979 23.9789 26.5519 23.9789 26.6153H23.7333C23.7333 26.543 23.7584 26.4733 23.8086 26.4064C23.8596 26.3385 23.9283 26.2849 24.0146 26.2457C24.1017 26.2064 24.1973 26.1867 24.3011 26.1867C24.4658 26.1867 24.5947 26.2287 24.688 26.3126C24.7814 26.3957 24.8298 26.5104 24.8333 26.6568V27.3237C24.8333 27.4567 24.85 27.5625 24.8835 27.6411V27.6625H24.6273ZM24.2219 27.4737C24.2985 27.4737 24.3711 27.4536 24.4398 27.4134C24.5085 27.3733 24.5582 27.321 24.589 27.2568V26.9595H24.3975C24.0982 26.9595 23.9486 27.0483 23.9486 27.226C23.9486 27.3036 23.9741 27.3643 24.0251 27.4081C24.0762 27.4518 24.1418 27.4737 24.2219 27.4737Z" fill="#262420"/>
<path d="M25.4473 26.2135L25.4553 26.3957C25.5644 26.2564 25.707 26.1867 25.8831 26.1867C26.1851 26.1867 26.3374 26.3595 26.34 26.705V27.6625H26.0957V26.7037C26.0948 26.5992 26.0711 26.522 26.0244 26.472C25.9786 26.422 25.9069 26.397 25.8092 26.397C25.7299 26.397 25.6604 26.4184 25.6005 26.4613C25.5407 26.5041 25.494 26.5604 25.4605 26.63V27.6625H25.2163V26.2135H25.4473Z" fill="#262420"/>
<path d="M27.1072 26.9916L26.9541 27.1536V27.6625H26.7098V25.6055H26.9541V26.8496L27.0848 26.6903L27.5298 26.2135H27.8269L27.271 26.8188L27.8916 27.6625H27.6051L27.1072 26.9916Z" fill="#262420"/>
<path d="M28.0144 26.9246C28.0144 26.7827 28.0417 26.655 28.0963 26.5416C28.1518 26.4282 28.2284 26.3407 28.3261 26.2791C28.4247 26.2175 28.5369 26.1867 28.6628 26.1867C28.8574 26.1867 29.0145 26.255 29.1342 26.3916C29.2548 26.5282 29.3151 26.7099 29.3151 26.9367V26.9541C29.3151 27.0952 29.2883 27.2219 29.2346 27.3344C29.1818 27.446 29.1056 27.5331 29.0061 27.5956C28.9075 27.6581 28.794 27.6893 28.6654 27.6893C28.4718 27.6893 28.3146 27.621 28.194 27.4844C28.0743 27.3478 28.0144 27.167 28.0144 26.942V26.9246ZM28.26 26.9541C28.26 27.1148 28.2966 27.2438 28.3697 27.3411C28.4436 27.4384 28.5422 27.4871 28.6654 27.4871C28.7896 27.4871 28.8882 27.438 28.9612 27.3398C29.0343 27.2407 29.0708 27.1023 29.0708 26.9246C29.0708 26.7657 29.0334 26.6372 28.9586 26.539C28.8847 26.4399 28.7861 26.3903 28.6628 26.3903C28.5422 26.3903 28.4449 26.439 28.371 26.5363C28.297 26.6336 28.26 26.7729 28.26 26.9541Z" fill="#262420"/>
<path d="M30.8866 27.321L31.1612 26.2135H31.4055L30.9896 27.6625H30.7915L30.4442 26.5644L30.1061 27.6625H29.9081L29.4934 26.2135H29.7364L30.0177 27.2983L30.3504 26.2135H30.5472L30.8866 27.321Z" fill="#262420"/>
<path d="M32.487 27.2782C32.487 27.2112 32.4619 27.1594 32.4118 27.1228C32.3625 27.0853 32.2757 27.0532 32.1516 27.0264C32.0284 26.9996 31.9302 26.9675 31.8571 26.93C31.785 26.8925 31.7313 26.8479 31.696 26.7961C31.6617 26.7443 31.6445 26.6827 31.6445 26.6113C31.6445 26.4925 31.6938 26.3921 31.7924 26.3099C31.8919 26.2278 32.0187 26.1867 32.1727 26.1867C32.3347 26.1867 32.4659 26.2291 32.5663 26.314C32.6675 26.3988 32.7181 26.5073 32.7181 26.6394H32.4725C32.4725 26.5715 32.4439 26.5131 32.3867 26.464C32.3303 26.4149 32.259 26.3903 32.1727 26.3903C32.0838 26.3903 32.0143 26.4099 31.9641 26.4492C31.9139 26.4885 31.8888 26.5398 31.8888 26.6032C31.8888 26.663 31.9122 26.7081 31.9588 26.7385C32.0055 26.7688 32.0896 26.7979 32.211 26.8255C32.3334 26.8532 32.4324 26.8862 32.5082 26.9246C32.5839 26.963 32.6398 27.0095 32.6759 27.0639C32.7128 27.1175 32.7313 27.1831 32.7313 27.2608C32.7313 27.3902 32.6803 27.4942 32.5781 27.5728C32.476 27.6505 32.3435 27.6893 32.1807 27.6893C32.0662 27.6893 31.965 27.6688 31.8769 27.6277C31.7889 27.5866 31.7198 27.5295 31.6696 27.4563C31.6203 27.3822 31.5957 27.3023 31.5957 27.2166H31.84C31.8444 27.2996 31.8769 27.3657 31.9377 27.4148C31.9993 27.463 32.0803 27.4871 32.1807 27.4871C32.2731 27.4871 32.3471 27.4684 32.4025 27.4309C32.4589 27.3925 32.487 27.3416 32.487 27.2782Z" fill="#262420"/>
<path d="M33.4484 26.9916L33.2952 27.1536V27.6625H33.0509V25.6055H33.2952V26.8496L33.4259 26.6903L33.8709 26.2135H34.168L33.6121 26.8188L34.2328 27.6625H33.9462L33.4484 26.9916Z" fill="#262420"/>
<path d="M34.6857 27.6625H34.4414V26.2135H34.6857V27.6625ZM34.4216 25.8292C34.4216 25.789 34.4335 25.7551 34.4572 25.7274C34.4819 25.6997 34.518 25.6859 34.5655 25.6859C34.6131 25.6859 34.6492 25.6997 34.6738 25.7274C34.6985 25.7551 34.7108 25.789 34.7108 25.8292C34.7108 25.8694 34.6985 25.9028 34.6738 25.9296C34.6492 25.9564 34.6131 25.9698 34.5655 25.9698C34.518 25.9698 34.4819 25.9564 34.4572 25.9296C34.4335 25.9028 34.4216 25.8694 34.4216 25.8292Z" fill="#262420"/>
<g filter="url(#filter0_d)">
<path d="M14.5449 34.0746H17.4545V34.9763H13.4313V28.4767H14.5449V34.0746Z" fill="black"/>
<path d="M14.5449 34.0746H17.4545V34.9763H13.4313V28.4767H14.5449V34.0746Z" fill="#262420"/>
<path d="M26.4965 28.4767V32.8202C26.4965 33.5106 26.2779 34.0582 25.8406 34.463C25.4063 34.8647 24.8268 35.0656 24.102 35.0656C23.3683 35.0656 22.7858 34.8677 22.3545 34.4719C21.9231 34.0731 21.7074 33.5211 21.7074 32.8157V28.4767H22.8166V32.8247C22.8166 33.2592 22.9252 33.591 23.1424 33.8201C23.3595 34.0493 23.6794 34.1639 24.102 34.1639C24.9588 34.1639 25.3873 33.7056 25.3873 32.789V28.4767H26.4965Z" fill="black"/>
<path d="M26.4965 28.4767V32.8202C26.4965 33.5106 26.2779 34.0582 25.8406 34.463C25.4063 34.8647 24.8268 35.0656 24.102 35.0656C23.3683 35.0656 22.7858 34.8677 22.3545 34.4719C21.9231 34.0731 21.7074 33.5211 21.7074 32.8157V28.4767H22.8166V32.8247C22.8166 33.2592 22.9252 33.591 23.1424 33.8201C23.3595 34.0493 23.6794 34.1639 24.102 34.1639C24.9588 34.1639 25.3873 33.7056 25.3873 32.789V28.4767H26.4965Z" fill="#262420"/>
<path d="M33.5005 30.8248L34.8475 28.4767H36.1328L34.196 31.6997L36.1768 34.9763H34.8783L33.5005 32.5925L32.1184 34.9763H30.8243L32.8095 31.6997L30.8683 28.4767H32.1536L33.5005 30.8248Z" fill="black"/>
<path d="M33.5005 30.8248L34.8475 28.4767H36.1328L34.196 31.6997L36.1768 34.9763H34.8783L33.5005 32.5925L32.1184 34.9763H30.8243L32.8095 31.6997L30.8683 28.4767H32.1536L33.5005 30.8248Z" fill="#262420"/>
</g>
<path d="M29.9487 3.1973L29.6293 2.87344L29.0794 3.4312L28.8991 3.24844L30.2587 1.86967L30.7087 2.3261C30.8619 2.4814 30.9447 2.63607 30.9571 2.79011C30.9702 2.94478 30.9101 3.08967 30.7769 3.22476C30.6922 3.31062 30.5954 3.36207 30.4865 3.37912C30.3782 3.3968 30.2677 3.38007 30.155 3.32893L29.8973 4.23801L29.8861 4.24937L29.6938 4.0543L29.9487 3.1973ZM29.7759 2.72477L30.0514 3.00412C30.1404 3.0944 30.2341 3.1427 30.3324 3.14901C30.4314 3.15595 30.5195 3.12028 30.5967 3.042C30.6807 2.95678 30.7199 2.86587 30.7143 2.76928C30.7094 2.67332 30.6599 2.57705 30.5659 2.48046L30.2914 2.20205L29.7759 2.72477Z" fill="#262420"/>
<path d="M30.452 4.8611C30.315 4.72222 30.2484 4.56376 30.2521 4.38573C30.2565 4.20707 30.334 4.04136 30.4846 3.88858L30.5164 3.85638C30.6166 3.75474 30.7249 3.68341 30.8413 3.64237C30.959 3.60134 31.0741 3.59313 31.1868 3.61775C31.3007 3.64237 31.3978 3.6954 31.4781 3.77684C31.6095 3.91004 31.6683 4.05745 31.6546 4.21907C31.6409 4.38068 31.5535 4.54324 31.3922 4.70675L31.3203 4.77967L30.6359 4.08555C30.5388 4.18908 30.4871 4.30019 30.4809 4.41888C30.4759 4.53756 30.5164 4.64046 30.6023 4.72758C30.6633 4.78945 30.7274 4.82922 30.7946 4.8469C30.8619 4.86458 30.9319 4.86868 31.0047 4.85921L31.0281 5.04955C30.8133 5.09563 30.6213 5.03282 30.452 4.8611ZM31.3362 3.92078C31.2665 3.85007 31.1825 3.81661 31.0841 3.8204C30.9864 3.82356 30.8862 3.86585 30.7834 3.94729L31.2895 4.46054L31.3026 4.44728C31.3854 4.35322 31.4296 4.26042 31.4352 4.16888C31.4414 4.07671 31.4084 3.99401 31.3362 3.92078Z" fill="#262420"/>
<path d="M32.2382 4.58554L32.1308 4.70391C32.2921 4.69065 32.4356 4.74779 32.5613 4.87531C32.7026 5.01861 32.7446 5.17107 32.6874 5.33269C32.7695 5.31754 32.8523 5.32196 32.9357 5.34595C33.0198 5.37057 33.0985 5.42012 33.172 5.49462C33.3936 5.71936 33.3889 5.95263 33.158 6.19442L32.481 6.88096L32.3083 6.70577L32.9749 6.02965C33.0472 5.95642 33.0845 5.88508 33.087 5.81564C33.0901 5.74556 33.0528 5.67107 32.9749 5.59215C32.9108 5.52713 32.8383 5.49272 32.7574 5.48894C32.6771 5.48452 32.6011 5.51166 32.5295 5.57037L31.8591 6.25029L31.6854 6.07415L32.3475 5.40276C32.4944 5.25378 32.4959 5.10637 32.3521 4.96053C32.2388 4.84564 32.1131 4.81597 31.9749 4.87152L31.2372 5.61962L31.0645 5.44443L32.0748 4.41982L32.2382 4.58554Z" fill="#262420"/>
<path d="M33.2112 6.57793C33.3102 6.47756 33.4185 6.40685 33.5361 6.36582C33.6544 6.32541 33.7696 6.31847 33.8816 6.34498C33.9943 6.37213 34.0951 6.43084 34.1842 6.52112C34.3217 6.66064 34.3852 6.82162 34.3746 7.00406C34.3647 7.18714 34.2806 7.35886 34.1225 7.51921L34.1104 7.53152C34.012 7.63127 33.9046 7.70166 33.7882 7.74269C33.6731 7.78373 33.5585 7.79067 33.4446 7.76352C33.3313 7.73701 33.2292 7.67767 33.1384 7.5855C33.0014 7.44661 32.9379 7.28563 32.9479 7.10255C32.9585 6.9201 33.0422 6.74933 33.199 6.59025L33.2112 6.57793ZM33.3643 6.7749C33.2523 6.88854 33.1882 7.00596 33.172 7.12717C33.1564 7.24901 33.1922 7.35412 33.2793 7.44251C33.3671 7.53152 33.4711 7.5675 33.5912 7.55046C33.712 7.53278 33.8343 7.46113 33.9582 7.3355C34.069 7.22313 34.1322 7.10539 34.1477 6.98228C34.1645 6.85918 34.1294 6.75344 34.0422 6.66505C33.9569 6.57857 33.8542 6.54321 33.7341 6.559C33.6139 6.57478 33.4907 6.64675 33.3643 6.7749Z" fill="#262420"/>
<path d="M35.0068 7.39326L34.8854 7.52773C35.0597 7.50753 35.2091 7.56056 35.3336 7.68682C35.5471 7.90336 35.5344 8.13473 35.2953 8.38094L34.6277 9.05801L34.4549 8.88282L35.1235 8.2048C35.1957 8.13031 35.2327 8.05866 35.2346 7.98985C35.2371 7.92166 35.2038 7.85254 35.1347 7.78246C35.0787 7.72564 35.0146 7.69092 34.9424 7.6783C34.8701 7.66567 34.7979 7.67198 34.7257 7.69724L34.0058 8.42734L33.8331 8.25215L34.8434 7.22755L35.0068 7.39326Z" fill="#262420"/>
<path d="M36.3775 8.28719L36.1329 8.53529L36.3215 8.72658L36.188 8.86199L35.9994 8.67071L35.3728 9.30611C35.3323 9.34715 35.3103 9.38661 35.3065 9.42448C35.3034 9.46173 35.3221 9.50087 35.3625 9.54191C35.3825 9.56211 35.4136 9.5861 35.4559 9.61387L35.3159 9.75592C35.258 9.72246 35.2075 9.68395 35.1646 9.64039C35.0874 9.56211 35.0525 9.47941 35.06 9.39229C35.0675 9.30517 35.1142 9.21805 35.2001 9.13093L35.8266 8.49552L35.6427 8.30897L35.7762 8.17355L35.9601 8.3601L36.2048 8.112L36.3775 8.28719Z" fill="#262420"/>
<path d="M36.0974 10.0353L37.09 9.50592L37.2749 9.69342L35.7024 10.4642C35.4715 10.5709 35.2875 10.5548 35.1506 10.4159L35.1207 10.38L35.0684 10.3023L35.2085 10.1603L35.2514 10.2114C35.3099 10.2707 35.3672 10.3048 35.4232 10.3137C35.4799 10.3231 35.5502 10.3067 35.6343 10.2644L35.7753 10.1991L36.4139 8.82033L36.6026 9.01161L36.0974 10.0353Z" fill="#262420"/>
<path d="M37.0816 11.5466L36.9088 11.3714L37.9191 10.3468L38.0919 10.522L37.0816 11.5466ZM38.1731 10.0608C38.2011 10.0324 38.2332 10.017 38.2693 10.0144C38.306 10.0125 38.3412 10.0286 38.3748 10.0627C38.4084 10.0968 38.4243 10.1325 38.4224 10.1697C38.4206 10.207 38.4056 10.2398 38.3776 10.2682C38.3496 10.2966 38.3175 10.3115 38.2814 10.3127C38.2453 10.314 38.2105 10.2976 38.1769 10.2635C38.1432 10.2294 38.1271 10.194 38.1283 10.1574C38.1302 10.1214 38.1451 10.0892 38.1731 10.0608Z" fill="#262420"/>
<path d="M38.9659 12.9746L39.9323 12.3885L40.105 12.5636L38.8006 13.29L38.6605 13.1479L39.1806 12.1224L38.1759 12.6564L38.0359 12.5144L38.753 11.1924L38.9248 11.3667L38.3673 12.3354L39.359 11.807L39.4981 11.9481L38.9659 12.9746Z" fill="#262420"/>
<path d="M39.8548 13.8458L40.8474 13.3165L41.0323 13.504L39.4598 14.2748C39.2289 14.3815 39.0449 14.3654 38.908 14.2265L38.8781 14.1905L38.8258 14.1129L38.9659 13.9708L39.0088 14.022C39.0673 14.0813 39.1246 14.1154 39.1806 14.1242C39.2373 14.1337 39.3076 14.1173 39.3917 14.075L39.5327 14.0096L40.1713 12.6309L40.36 12.8222L39.8548 13.8458Z" fill="#262420"/>
<path d="M40.9267 14.4973L40.7054 14.5021L40.3506 14.8619L40.1779 14.6867L41.6121 13.2322L41.7849 13.4074L40.9174 14.2871L41.121 14.2682L41.7681 14.2502L41.9781 14.4632L41.163 14.4926L41.0136 15.5342L40.811 15.3288L40.9267 14.4973Z" fill="#262420"/>
<path d="M41.6149 15.1005C41.7139 15.0002 41.8222 14.9295 41.9399 14.8884C42.0581 14.848 42.1733 14.8411 42.2853 14.8676C42.398 14.8947 42.4989 14.9534 42.5879 15.0437C42.7255 15.1832 42.7889 15.3442 42.7784 15.5267C42.7684 15.7097 42.6844 15.8815 42.5263 16.0418L42.5141 16.0541C42.4158 16.1539 42.3084 16.2243 42.192 16.2653C42.0768 16.3063 41.9623 16.3133 41.8484 16.2861C41.7351 16.2596 41.633 16.2003 41.5421 16.1081C41.4051 15.9692 41.3416 15.8082 41.3516 15.6251C41.3622 15.4427 41.4459 15.2719 41.6028 15.1128L41.6149 15.1005ZM41.7681 15.2975C41.656 15.4111 41.5919 15.5286 41.5757 15.6498C41.5601 15.7716 41.5959 15.8767 41.6831 15.9651C41.7709 16.0541 41.8748 16.0901 41.995 16.0731C42.1157 16.0554 42.238 15.9837 42.3619 15.8581C42.4727 15.7457 42.5359 15.628 42.5515 15.5049C42.5683 15.3818 42.5331 15.276 42.446 15.1877C42.3607 15.1012 42.258 15.0658 42.1378 15.0816C42.0177 15.0974 41.8944 15.1693 41.7681 15.2975Z" fill="#262420"/>
<path d="M43.4105 15.9159L43.2891 16.0503C43.4634 16.0301 43.6128 16.0832 43.7373 16.2094C43.9508 16.426 43.9381 16.6573 43.699 16.9035L43.0314 17.5806L42.8587 17.4054L43.5272 16.7274C43.5994 16.6529 43.6365 16.5813 43.6383 16.5124C43.6408 16.4443 43.6075 16.3751 43.5384 16.3051C43.4824 16.2482 43.4183 16.2135 43.3461 16.2009C43.2739 16.1883 43.2017 16.1946 43.1295 16.2198L42.4095 16.9499L42.2368 16.7748L43.2471 15.7501L43.4105 15.9159ZM44.1594 15.8155L44.3685 16.0276L43.8438 16.0522L43.7046 15.9111L44.1594 15.8155Z" fill="#262420"/>
<path d="M43.8195 18.1317C43.8811 18.1942 43.9536 18.2299 44.0371 18.2387C44.1205 18.2476 44.1927 18.2261 44.2537 18.1744L44.4171 18.3401C44.3561 18.3956 44.2811 18.4313 44.1921 18.4471C44.103 18.4629 44.0122 18.4553 43.9194 18.4244C43.8273 18.394 43.747 18.3442 43.6785 18.2747C43.5409 18.1352 43.4771 17.9777 43.4871 17.8022C43.4983 17.6267 43.5836 17.4581 43.7429 17.2965L43.7719 17.2672C43.8702 17.1674 43.9757 17.097 44.0884 17.056C44.2011 17.015 44.3122 17.0071 44.4218 17.0323C44.5319 17.0582 44.6331 17.1179 44.7252 17.2113C44.8385 17.3262 44.8986 17.4559 44.9054 17.6005C44.9129 17.7457 44.865 17.8757 44.7616 17.9906L44.5982 17.8249C44.6586 17.7536 44.6873 17.674 44.6841 17.5863C44.6823 17.4985 44.6487 17.4215 44.5833 17.3552C44.4955 17.2662 44.3956 17.2293 44.2836 17.2444C44.1728 17.2596 44.0576 17.3278 43.9381 17.449L43.9054 17.4821C43.789 17.6002 43.7233 17.7154 43.7084 17.8278C43.6934 17.9401 43.7305 18.0415 43.8195 18.1317Z" fill="#262420"/>
<path d="M44.5964 18.8817L45.1874 19.4812L45.0464 19.6241L44.2444 18.8107L44.3713 18.6819L45.6693 18.4963L45.1202 17.9395L45.2631 17.7946L46.0287 18.5711L45.9064 18.6952L44.5964 18.8817Z" fill="#262420"/>
<path d="M45.6272 20.251C45.4903 20.1121 45.4237 19.9537 45.4274 19.7757C45.4318 19.597 45.5093 19.4313 45.6599 19.2785L45.6917 19.2463C45.7919 19.1447 45.9002 19.0733 46.0166 19.0323C46.1343 18.9913 46.2494 18.9831 46.3621 19.0077C46.476 19.0323 46.5731 19.0853 46.6534 19.1668C46.7848 19.3 46.8436 19.4474 46.8299 19.609C46.8162 19.7706 46.7287 19.9332 46.5675 20.0967L46.4956 20.1696L45.8112 19.4755C45.7141 19.579 45.6624 19.6901 45.6562 19.8088C45.6512 19.9275 45.6917 20.0304 45.7776 20.1175C45.8386 20.1794 45.9027 20.2191 45.9699 20.2368C46.0371 20.2545 46.1072 20.2586 46.18 20.2491L46.2034 20.4395C45.9886 20.4856 45.7966 20.4227 45.6272 20.251ZM46.5115 19.3107C46.4418 19.24 46.3577 19.2065 46.2594 19.2103C46.1616 19.2135 46.0614 19.2558 45.9587 19.3372L46.4648 19.8505L46.4779 19.8372C46.5607 19.7431 46.6049 19.6503 46.6105 19.5588C46.6167 19.4666 46.5837 19.3839 46.5115 19.3107Z" fill="#262420"/>
<path d="M47.4144 19.9764L47.293 20.1109C47.4673 20.0907 47.6167 20.1437 47.7412 20.27C47.9548 20.4865 47.942 20.7179 47.703 20.9641L47.0353 21.6412L46.8626 21.466L47.5311 20.788C47.6034 20.7135 47.6404 20.6418 47.6423 20.573C47.6448 20.5048 47.6114 20.4357 47.5423 20.3656C47.4863 20.3088 47.4222 20.2741 47.35 20.2614C47.2778 20.2488 47.2056 20.2551 47.1334 20.2804L46.4134 21.0105L46.2407 20.8353L47.251 19.8107L47.4144 19.9764Z" fill="#262420"/>
<path d="M47.4835 22.0957L47.3108 21.9205L48.3211 20.8959L48.4938 21.0711L47.4835 22.0957ZM48.5751 20.6099C48.6031 20.5815 48.6351 20.566 48.6712 20.5635C48.708 20.5616 48.7431 20.5777 48.7768 20.6118C48.8104 20.6459 48.8263 20.6816 48.8244 20.7188C48.8225 20.7561 48.8076 20.7889 48.7796 20.8173C48.7516 20.8457 48.7195 20.8606 48.6834 20.8618C48.6473 20.8631 48.6124 20.8467 48.5788 20.8126C48.5452 20.7785 48.529 20.7431 48.5303 20.7065C48.5321 20.6705 48.5471 20.6383 48.5751 20.6099Z" fill="#262420"/>
<path d="M48.3846 23.0095C48.3945 22.9792 48.4219 22.935 48.4668 22.8769C48.303 22.8801 48.1655 22.8252 48.054 22.7122C47.9544 22.6112 47.9006 22.4997 47.8925 22.3779C47.8857 22.256 47.9255 22.1513 48.012 22.0635C48.1172 21.9568 48.2386 21.9145 48.3762 21.9366C48.515 21.9587 48.6569 22.0433 48.802 22.1904L48.97 22.3608L49.0494 22.2804C49.1098 22.2191 49.1397 22.1522 49.1391 22.0796C49.1391 22.0064 49.1039 21.9341 49.0335 21.8627C48.9719 21.8002 48.9047 21.7636 48.8319 21.7529C48.759 21.7422 48.7005 21.7592 48.6563 21.804L48.4826 21.6279C48.5331 21.5768 48.5994 21.5455 48.6815 21.5342C48.7649 21.5228 48.8508 21.5342 48.9392 21.5682C49.0283 21.603 49.1095 21.6576 49.1829 21.7321C49.2994 21.8501 49.3613 21.9723 49.3688 22.0985C49.3769 22.2242 49.3311 22.34 49.2315 22.4461L48.7665 22.9177C48.6737 23.0117 48.6118 23.0985 48.5807 23.1781L48.5657 23.1932L48.3846 23.0095ZM48.2296 22.5853C48.2837 22.6402 48.3491 22.6781 48.4257 22.6989C48.5022 22.7197 48.5738 22.7185 48.6404 22.6951L48.8477 22.4849L48.7123 22.3476C48.5007 22.1329 48.3329 22.0884 48.209 22.2141C48.1549 22.269 48.1306 22.3302 48.1362 22.3978C48.1418 22.4653 48.1729 22.5278 48.2296 22.5853Z" fill="#262420"/>
<defs>
<filter id="filter0_d" x="11.4313" y="27.4767" width="28.7455" height="12.5889" filterUnits="userSpaceOnUse" color-interpolation-filters="sRGB">
<feFlood flood-opacity="0" result="BackgroundImageFix"/>
<feColorMatrix in="SourceAlpha" type="matrix" values="0 0 0 0 0 0 0 0 0 0 0 0 0 0 0 0 0 0 127 0"/>
<feOffset dx="1" dy="2"/>
<feGaussianBlur stdDeviation="1.5"/>
<feColorMatrix type="matrix" values="0 0 0 0 0 0 0 0 0 0 0 0 0 0 0 0 0 0 0.25 0"/>
<feBlend mode="normal" in2="BackgroundImageFix" result="effect1_dropShadow"/>
<feBlend mode="normal" in="SourceGraphic" in2="effect1_dropShadow" result="shape"/>
</filter>
</defs>
</svg>
